<svg xmlns="http://www.w3.org/2000/svg" viewBox="0 0 32 32">
    <path id="dribbble" d="M16,27.984A11.984,11.984,0,1,1,28,16,12.00557,12.00557,0,0,1,16,27.984ZM26.1202,17.64047a15.06244,15.06244,0,0,0-6.3845-.43758,44.12951,44.12951,0,0,1,1.99124,7.29826,10.25237,10.25237,0,0,0,4.39326-6.86068ZM20.0038,25.4383a42.50667,42.50667,0,0,0-2.18659-7.76245l-.06759.0228C11.96833,19.7105,9.893,23.71438,9.70854,24.091A10.24675,10.24675,0,0,0,20.0038,25.4383ZM8.38512,22.85983A16.25652,16.25652,0,0,1,16.71663,16.105q.20034-.06469.4039-.12178c-.25733-.58152-.53757-1.16368-.831-1.73717A37.85771,37.85771,0,0,1,5.75539,15.70288c-.00316.10389-.00526.20807-.00526.31274a10.18782,10.18782,0,0,0,2.635,6.84421ZM5.96668,13.91912A38.2798,38.2798,0,0,0,15.44252,12.672,65.30919,65.30919,0,0,0,11.64233,6.752a10.276,10.276,0,0,0-5.67565,7.16708ZM13.59805,6.064a54.62959,54.62959,0,0,1,3.8245,5.99239,11.57137,11.57137,0,0,0,5.372-3.69757A10.24893,10.24893,0,0,0,13.59805,6.064Zm10.336,3.47853a13.65165,13.65165,0,0,1-5.72341,4.036c.23848.48758.46716.98349.68,1.48266q.11315.26539.22079.52827a23.985,23.985,0,0,1,7.13721.3295,10.17939,10.17939,0,0,0-2.3146-6.37642Z" fill="#262626"/>
</svg>
